<?xml version="1.0" encoding="UTF-8"?><svg id="Layer_1" xmlns="http://www.w3.org/2000/svg" viewBox="0 0 4010.67 5000"><defs><style>.cls-1{fill:#fb5457;}</style></defs><path class="cls-1" d="M3836.87,1853.51c-169.8-352.47-446.43-567.55-845.18-657.64,8.48-38.44,15.15-62.91,15.84-73.65,91.17-32.92,182.92-107.47,216.83-159.36,5.63-8.64,18.81-28.85,23.28-31,3.82.33,17.46,16.2,25.73,20.78,24.48,13.72,61.49,14.72,90,2.39,12.42-5.4,25.55-14.07,37.6-25.73,39.16-9.88,75.24-36.69,88.82-75.49,15.04-43.15-6.09-99.02-48.52-112.09,39.93-22.38,79.32-48.17,107.97-84.69,28.65-36.53,45.48-85.59,35.1-131.25-10.56-45.84-53-84.51-98.3-80.22,9.31-33.48,14.33-71.62-2.51-101.88-16.83-30.44-63.03-44.05-85.05-17.55,16.47-32.23,1.79-77.35-30.26-93.11-31.87-15.58-75.02,1.43-88.81,35.27,9.13-51.75-25.43-107.79-74.67-121.04-49.24-13.43-106,17.91-122.65,67.68-15.22-53.89-81.29-85.05-130.53-61.42-49.24,23.64-69.11,95.8-39.03,142.53-33.3-34.56-84.34-51.57-129.99-38.85-118.87,33.22-101.92,196.97-.36,206.27-79.54,31.06-113.39,135.8-54.7,211.29-25.75,126.69-32.41,249.07,27.55,364.23,10.36,19.93,22.52,36.7,36.13,50.81-37.14,113.44-27.67,73.89-33.58,96.48-65.92,1.99-112.7,5.26-138.68,9.74-95.96,16.5-195.82,65.23-305.29,148.97-117.44,89.74-146.12,120.2-240.27,235.77-1.58,1.94-2.24,6.23-1.93,7.79.25,1.23,6.1,29.22,23.47,69.37-26.24,31.38-67.88,78.27-94.45,86.58-7.85,2.61-27.39-4.19-41.68-14.26-14.62-10.79-242.19-254.89-338.25-365.9,4.64-34.45,5.41-73.25,6.16-110.81.93-45.73,4.03-65.06-6.73-81.54-11.3-17.49-36.76-25.28-57.97-17.71-17.37,6.17-31.46,21.31-38.63,41.45-3.38,9.29-4.88,13.61-5.69,19.14-27.32-27.92-41.55-50.11-70.8-71.6-48.28-35.47-90.42-9.2-96.93,26.41-47.86-4.45-77.2,48.52-51.1,89.34-25.91,11.4-34.47,55.13-4.23,86.03-23.89,5.05-29.81,32.7-17.57,54.86,17.16,31.21,51.33,45.41,79.73,60.71,37.26,20.14,63.93,34.74,90.18,47.37,56.16,86.75,139.41,228.62,242.7,353.8l-267.27-.5,268.77,850.08,234.87.44c-291.29,315.07-593.15,660.72-873.1,953.32-32.13,33.51-38.91,83.27-16.88,123.8,24.07,44.27,51.82,84.92,81.53,121.67-19.87,13.93-36.09,32.34-48.94,55.93-24.61-12.59-47.03-16.97-66.43-12.02-35.12,8.84-54.8,52.2-67.98,82.97-4.99,1.69-10.32,11.48-33.64,10.11-44.49-3.69-67.78-30.84-86.31-67.15,20.43,9.15,45.36,9.57,67.47,10.64,11.76.68,23.47.25,33.73-5.51,6.66-3.75,22.27-12.51,18.97-33.15-2.96-18.5-23.32-27.28-40.99-27.61-11.78-.26-22.94.24-33.76,1.4,8.16-7.06,15.98-14.99,23.62-23.89,35.52-41.29,12.86-89.07-28.12-82.35-17.1,2.9-30.98,12.57-42.43,29.56-9.29,13.75-22.01,32.65-28.56,53.09-16.96-50-8.76-82.04-42.3-112.29-28.25-25.33-64.69-32.66-101.82-20.22-16.78-1.38-66.45-3.31-96.25,19.6-87.66,67.67-94.72,231.41-19.04,329.07,98.34,126.79,266.82,169.61,344.7,275.1,10.38,14.05,21.67,29.25,36.57,40.23-377.11,10.61-729.39-25.3-737.85-60.41,4.55-19,149.48-51.32,446.17-60.32,11.46-.37,12.96-17.56-.57-18.81-108.94,3.31-464.4,18.8-464.4,79.02,0,108.47,1232.28,107.91,1232.28,0,0-11.06,0-36.95-174.24-58.76-12.22-1.72-14.79,17.11-2.33,18.67,151,18.91,157.72,39.98,157.77,39.98-3.22,13.49-97.88,44.16-366.25,57.17,23.38-16.32,43.99-40.01,58.27-56.7,63.71-25.09,71.11-96.53,84.28-164.53,26.82-11.03,59.74-34.44,67.75-61.05,3.49-11.41,2.88-23.98-1.36-37.37,25.76-13.07,46.8-30.27,63.95-55.55,41.66,30.1,82.22,52.56,117.94,66.15,43.98,16.8,93.03,3.15,122.13-33.59,66.85-85.29,233.64-295.63,440.1-538.44,18.32-18.3,28.75-28.64,61-60.92,9.14,218.83,34.87,420.96,78.75,617.46,9.88,44,44.69,78.56,88.66,88.06,61.91,13.43,120.93,21.55,175.3,24.65-2.53,25.12,1.28,50.42,11.6,76.66-25.67,10.33-43.58,24.44-52.34,42.46-15.97,32.62,5.02,76.46,20.36,106.92-.41,1.08-.67,2.24-.65,3.46.32,23.68-36.26,60.8-90.64,55.34-10.83-1.1-21.3-3.29-31.62-5.91,20.52-9.44,37.08-28.11,52.38-44.27,7.85-8.21,15.42-17.45,17.67-29.38,1.42-7.51,4.75-25.12-13.26-36.21-15.5-9.57-35.88-.77-47.99,12.88-7.91,8.91-14.93,17.88-21.14,27.01-.16-11.13-1.23-22.6-3.23-34.6-9.09-54.64-61.03-68.47-82.05-33.02-8.87,14.94-10.37,31.93-4.61,51.9,4.66,16.22,11.26,38.35,22.91,56.91-50.68-20.8-70.19-47.91-114.74-42.48-38.57,4.55-68.44,28-82.35,64.1-12.14,12.04-45.76,48.62-47.17,86.16-3.6,94.69,84.78,187.89,175.98,219.3,1.26,2.28,3.37,4.07,6.11,4.67,404.49,89.8,1724.25,68.42,1724.25-52.91,0-32.32-87.81-58.48-261.36-77.96,167.78-16.74,252.66-40.42,252.66-70.61,0-34.32-107.72-60.12-320.46-76.8,45.69-12.53,53.34-24.75,53.34-35.55,0-73.4-568.1-80.57-519.31-78.95-5.1,0-9.28,4.06-9.41,9.19-.12,5.18,3.99,9.5,9.18,9.63,329.96,7.9,493.87,40.75,500.77,59.79-.22.62-6.52,15.27-104.8,31.2-10.95,1.75-10.26,17.94.91,18.67,300.75,19.05,370.31,52.6,370.97,62.84-.77,10.22-63.19,41.05-339.12,60.58-11.54.82-11.59,17.81-.12,18.76,343.97,28.59,347.94,68.83,347.94,69.23,0,37.37-339.91,89.48-893.49,89.48-258.24,0-496.25-11.76-663.8-31.83,122.48-17.95,244.07-83.42,351.05-74.72,27.86,2.24,59.47,4.81,85.29-14.7l.02-.02c37.53-28.54,26.35-99.71,19.7-139.56,22.07-65.13-28.87-118.43-73.22-173.37,8.87-27.73,12.1-68.31-3.36-92.07-6.6-10.24-16.81-18.11-30.03-23.76,7.05-29.56,4.51-61.45-3.73-89.94,15.1-5.34,28.82-11.57,40.88-18.76,39.14-23.35,58.63-69.93,50.87-121.54-46.57-318.28-60.61-632.8-92.83-960.41,13.55-1.26,956.67-118.86,958.97-119.15,5.15-.64,8.82-5.33,8.18-10.49-.63-5.14-5.35-8.97-10.49-8.18l-301.48,37.34c171.9-65.4,198.74-261.85,164.17-443.39,121.02-92.34,231.35-196.66,329.12-342.83,48.98-73.24,49.46-172.77,31.39-253.53,39.79-20.83,115.31-62.14,95.72-102.87ZM3336.17,2249.3c-35.5-168.54-59.66-341.99-71.68-445.93,24.37,78.97,47.58,148.25,66.87,235.41,4.95,32.12,95.95,19.15,128.22,13.47-12.23,70.96-73.41,145.26-123.42,197.06ZM2744.31,685.68c20.92-107.38,54.72-183.36,102.87-231.42,1.97-1.52,3.92-3.06,5.96-4.48,158.8,168.88,368.93,151.6,372.12,152.32.41,21.28-8.54,42.37-32.13,61.08-6.17,4.89-13.62,9.77-14.97,17.69-1.48,8.56,4.9,16.15,9.98,23.09,37.46,51.09,5.1,100.46.49,154.28-2.93,34.16,29.27,46.29,52.69,25.03,28.3-25.68,40.37-121.6,124.9-139.09,51.9-8.51,93.94,53.56,49.98,133.93,0,0,0,0,0,.02-17.13,31.37-39.89,50.77-60.3,59.62-23.09,10.01-53.92,9.32-73.37-1.56-9.39-5.18-20.8-25.67-38.07-22.87-10.79,1.95-21.19,16.79-35.84,39.25-32.47,49.75-124.56,124.45-213.85,154.58-.34.13-.74.15-1.06.32-95.49,31.87-175.37,12.53-221.98-77.15-57.14-109.76-50.23-225.83-27.39-344.63ZM2806.34,1103.78c52.42,42.73,116.38,44.16,181.15,25.01-1.15,5.08-18.66,82.67-17.96,79.54-.73,3.77-3.16,7.13-6.42,8.97-52.69,29.1-107.7,52.31-152.97,25.7-14.63-8.45-31.91-19.99-35.72-34.36-3.67-14.07,4.15-19.71,31.91-104.86ZM2325.02,1359.95c107-81.87,204.16-129.42,297.05-145.37,24.8-4.29,69.82-7.45,133.43-9.41.15,2.82.09,5.8.74,8.27,5.59,21.11,26.71,35.59,44.43,45.8,54.31,32.02,116.29,5.03,171.6-25.5,7.44-4.18,12.86-11.47,15.06-19.58,387.84,87.58,658.37,295.06,826.06,634.15-4.49.09-8.99.39-13.48.56-116.58-9.11-387.95,88.04-455.73,162.17-19.41-81.57-61.29-212.52-60.87-210.63-27.8-123.67-67.42-209.11-67.82-209.95-2.2-4.7-7.82-6.76-12.51-4.54-4.7,2.2-6.73,7.81-4.54,12.51.27.57,18.91,40.79,39.43,105.78-6.58,13.62,33.52,332.65,82.46,561.17-48.72,48.5-102.85,94.44-155.42,140.12-6.34-1.72-13.24-1.08-19.26,2.68-9.31,5.91-19.52,12.18-28.83,18.08-10.11,6.52-13.75,19.23-9.03,30.04-10.74,9.84-21.05,19.61-30.96,29.3h-86c-22.27-3.71-44.29-6.9-65.64-9.85-18.65-2.57-35.47-3.4-49.21,9.85h-113.43l-194.69-615.82c-1.23-3.91-4.85-6.58-8.96-6.58l-128.57-.18h0c-.17,0-.33.1-.5.11h-1.73c26.3-85.45,39.48-172.37,39.65-264.06,0-5.2-4.2-9.41-9.39-9.43h-.02c-5.19,0-9.4,4.21-9.41,9.39-.17,91.74-13.61,178.62-40.51,264.05l-12.68-.02c-44.67-144.3-148.03-257.2-297.39-283.23,84.85-103.75,115.3-134.82,226.68-219.91ZM3208.32,2581.23c-34.93,0-62.74-30.95-57.3-66.6,5.97-41.64,52.74-62.28,87.76-40.81,48.85,30.54,28.29,107.41-30.46,107.41ZM3134.76,2502.5c-15.52,56.02,31.16,103.84,83.73,96.86,10.03,8.73,20.46,16.86,31.3,24.37-63.63,43.68-62.54,40.77-63.65,46.46-4.77,5.97,10.26-14.72-59.33,96.9-13.11,21.2-26.67,43.14-48.9,52.44-8.53,3.58-17.58,3.14-23.05-1.1-7.6-5.92-4.14-19.49,2.44-33.4,8.49-12.99,16.66-28.5,24.09-39.52,2.9-4.3,1.76-10.14-2.54-13.06-4.3-2.9-10.14-1.76-13.05,2.55-9.17,13.39-18.32,26.65-25.31,41.38-9.84,14.77-20.99,27.34-35.86,32.13-11.67,3.78-31.37-.17-38.3-10.71-14.71-22.39,50.93-95.18,68.72-114.78,3.49-3.84,3.21-9.79-.64-13.28-3.83-3.47-9.77-3.2-13.28.64-23.63,26.01-68.73,76.66-74.76,111.5-27.03,18.54-66.03-.21-65.86-29.86.21-38.64,64.85-86.61,87.45-110.52,3.57-3.77,3.42-9.72-.36-13.3-3.77-3.55-9.72-3.4-13.29.37-19.72,20.78-69.25,57.82-86.42,97.33-36.17-10.82-47.97-38.37-22.35-67.53,24.76-28.13,56.79-47.38,88.1-75.18,2.53.39,3.35.58,4.48.58,11.52,0,12.86-16.94,1.41-18.7-64.03-9.84-69.15-57.6-46.08-69.27,7.77-3.93,17.8-2.94,29.16-1.38,111.2,15.41,131.09,23.51,141.42,24.96,7.78,1.11,3.91-.73,53-45.97,5.59,9.85,11.5,19.55,17.73,29.1ZM3202.15,2678.75c4.44-2.97,8.81-5.94,13.23-8.91v24.56h-22.01c9.95-16.96,7.87-12.77,8.79-15.65ZM2053.77,2333.34c-39.03,0-80.4-34.74-92.39-77.53-12-42.97,10.03-77.71,49.24-77.71s80.58,34.74,92.57,77.71c12,42.79-10.21,77.53-49.42,77.53ZM2467.67,1881.91l84.32.11,214.23,677.61c1.23,3.91,4.86,6.58,8.97,6.58h114.73c6.85,4.77,12.77,7.53,21.43,11.26-47.68,39.47-103.5,72.8-98.16,116.93h-88.62l-256.89-812.48ZM2871.46,2547.39h-89.38l-13.58-42.96h96.09c-4.94,15.92-1.9,29.7,6.87,42.96ZM1461.24,1495.52c-.95-1.45-2.27-2.61-3.83-3.36-27.06-12.94-52-26.61-91.83-48.14-26.31-14.18-57.74-27.07-72.12-53.21-4.64-8.4-5.22-17.51-1.5-23.15,5.57-8.32,22.35-4.17,35.65.86l38.48,20.41c4.53,2.43,10.26.73,12.72-3.9,2.43-4.59.68-10.29-3.9-12.71-28.12-16.81-65.53-28.48-77.89-56.22-5.25-11.58-3.38-31.47,6.86-38.86,17.78-13.15,80.98,29.24,98.52,41.71,4.22,2.99,10.11,2,13.12-2.2,3.01-4.24,2.03-10.11-2.2-13.12-22.01-15.67-66.3-43.81-93.1-47.24-.36-.61-.62-1.26-1.12-1.8-23.41-24.77-7.87-63.92,21.9-66.44,26.76-2.52,61.59,25.15,85.44,45.95,9.36,8.22,21.74-5.99,12.37-14.18-20.63-17.99-45.64-37.56-70.56-46.15,1.26-7.98,5.28-15.45,11.58-20.57,43.39-35.25,96.4,50.41,135.72,86-.03,26.66,7.45,53.79,21.93,77.06,6.5,10.38,22.58.7,15.97-9.96-30.02-48.23-23.02-120.85,14.81-134.33,11.48-4.1,28.63-.97,35.89,10.25,7.15,10.93,4.62,24.61,3.69,70.9-2.41,122.13-10.27,113.44-4.37,120.25,92.55,107.32,328.1,360.67,344.42,372.21,11.93,8.4,39.47,22.75,58.18,16.87,39.93-12.52,97.07-84.91,124.19-117.64,104.34,41.41,167.44,102.19,215.47,207.54-3.45,3.19-7.03,6.29-11.83,10.6l-620.23-1.15c-107.38-127.71-199.22-284.35-252.42-366.3ZM893.06,3943.59c10.07.18,21.63,4.74,22.76,11.78.96,6.03-1.1,8.98-9.6,13.76-6.63,3.73-15.58,3.56-23.49,3.14-1.89-.09-10.21-.5-8.31-.4-22.94-1.05-48.36-2.2-63.26-15.19,25.57-9.44,51.93-13.72,81.91-13.08ZM828.3,3860.01c8.54-12.66,18.06-19.49,29.99-21.52,10.68-1.85,19.32,2.57,22.76,13.32,10.21,31.93-48.52,76.49-80.41,88.72-8.56-26.86,13.93-60.17,27.67-80.53ZM1001.99,4364.1c-31.36,0-50.57-22.11-75.79-43.47-57.13-47.78-26.03-55.39-186.73-134.95-85.67-42.38-165.44-82.22-195.13-175.45-23.7-75.03,21.61-190.37,96.98-220.85,34.96-12.58,64.3-6.29,87.93,14.9,27.79,25.07,21.54,59.38,34.67,97.27,1.37,3.96,7.01,20.67,7.65,22.56-4.21.21-7.9,3.08-8.75,7.38-7.86,39.56-24.96,68.48-52.26,88.45-10.22,7.47,1.26,22.42,11.1,15.18,28.48-20.81,47.32-51.48,56.95-90.44,6.64,18.6,14.51,37.14,24.8,55.04-3.23,7.54-1.77,64.22-46.02,102.75-9.53,8.26,3.12,22.27,12.35,14.18,26.06-22.68,41.84-52.74,48.96-93.67,20.16,25.59,47.73,40.62,80.42,43.33,14.78,1,28-2.25,38.34-8.83,66.5,125.49,163.94,146.93,181.52,156.92-16.48,87.8-27.13,149.68-117,149.68ZM1178.65,4100.52c-50.04,11.17-91.21-52.95-102.63-72.89-9.09-15.83-3.38-29.41,5.4-43.03,9.95-25.13,27.72-45.71,48.15-59.63,39.78,46.97,82.55,87.16,124.72,119.36-20.63,30.74-51.9,51.12-75.64,56.18ZM1494.72,4076.34c-24.01,30.35-64.44,41.51-100.65,27.65-103.75-39.45-249.6-154.96-341.55-324.09-18.12-33.29-12.52-74.19,13.93-101.79,283.54-296.32,593.87-651.87,885.05-966.28l178.82.33c-66.19,69.07-112.82,156.72-117.27,267.71-2.14,53.08-1.22,37.42-2.26,67.42-22.08,40.34-27.8,122.25-37.77,173.98-70.64,371.98-62.01,322.06-64.6,347.74-156.17,184.6-287.09,347.29-365.7,446.46-159.62-49.58-296.59-161.84-376.29-308.81-2.48-4.57-8.18-6.27-12.75-3.78-4.57,2.48-6.27,8.18-3.78,12.75,80.87,149.14,219.07,263.45,380.39,315.55-13.82,17.48-25.8,32.71-35.56,45.16ZM2232.9,4413.25c5.64-6.35,17.17-13.61,24.05-9.35,5.48,3.38,6.48,6.96,4.64,16.7-1.83,9.76-11.33,18.19-18.5,25.92-15.83,16.83-33.37,35.5-53.35,37.96,9.25-25.8,23.1-48.63,43.16-71.23ZM2128.58,4369.74c12.78-21.58,41.56-7.97,47.31,26.51,4.86,29.21,4.14,57.69-5.12,85.45-26.68-11.39-38-50.78-44.91-74.85-4.3-14.94-3.44-26.73,2.72-37.11ZM2645.11,4591.46c-26.33,43.01-49.52,40.36-96.96,47.6-32.63,4.95-66.34.19-102.6,8.54-67.71,15.77-129.19,48.34-194.77,71.58-129.25,45.93-240.15,18.32-292.72-108.79-30.15-73.04-4.75-118.31-6.09-114.97,11.85-28.74,35.12-46.6,66.2-50.28,37.43-4.37,60.22,23.19,98.14,38.25,3.27,1.31,20.97,8.59,22.9,9.39-2.66,3.35-2.93,8.11-.15,11.61,25.69,32.32,37.1,64.6,34.87,98.68-.34,5.18,3.59,9.65,8.77,10,4.88.42,9.65-3.4,10-8.78,2.31-35.35-8.77-69.97-32.62-103.07,18.6,7.25,37.94,13.52,58.36,17.59,3.49,7.43,48.92,43.97,50.09,103.56.1,5.13,4.3,9.22,9.41,9.22h.18c5.2-.11,9.32-4.39,9.22-9.59-.7-34.82-13.79-66.75-40.92-99.32,45.62,2.25,97.97-26.03,103.87-67.23,83.14,19.41,161.45,11.29,239.71-33.57l.36-.21c46.09,56.54,92.78,107.58,54.72,169.78ZM2540.85,4300.9c-23.79,45.36-100.42,34.03-123.34,29.45-27.76-5.57-29.97-36.33-33.11-42.13l-1.78.59c-9.54-24.02-12.92-46.58-10.37-69.42,57.41,2.03,116.29-.39,172.24-16.43,8.62,30.05,11.19,70.7-3.64,97.93ZM3146.2,2995.33c-475.7,72.99-535.57,76.61-700.5,94.38-5.17.57-8.89,5.22-8.32,10.38.56,5.09,5.12,8.88,10.38,8.32l94.74-10.46c30,304.85,44.36,597.86,83.29,891.57-131.08,55.68-283.32,61.16-418.04,14.96-4.91-1.71-10.27.92-11.95,5.84-1.68,4.91.94,10.27,5.85,11.94,137.34,47.14,292.04,42.3,426.8-13.55,2.31,17,4.58,33.98,7.08,51.05,6.61,43.95-9.43,83.27-41.89,102.61-100.29,59.81-294.97,38.68-411.64,13.39-36.84-7.97-66-36.93-74.28-73.81-84.35-377.76-91.72-730.94-75.87-1121.32,4.52-112.53,54.79-200.26,124.99-268.43,360.22,1.19,650.13.97,662.77.99,8.87,15.6,27.15,25.95,43.16,30.71-6.95,46.47,43.05,77.31,85.3,58.42,10.15,25.9,52.46,37.59,84.06,12.11,3.58,22.39,29.3,32.35,53.04,22.43,30.39-12.71,46.67-42.08,63.98-70.04,11.25-17.62,22.25-35.58,33.08-53.63h42.56c5.2,0,9.41-4.21,9.41-9.41v-46.64c11.51-7.8,22.94-15.61,34.29-23.44,13.52,2.14,18.4-4.69,52.64-27.85,5.91-4.07,9.2-10.13,10.14-16.48,10.95-7.92,21.81-15.93,32.6-24,36.15,205.03-9.71,397.65-217.67,429.95ZM3694.13,2199.44c-107.81,161.18-231.48,271.1-368.26,370.65-1.18-1.37-2.49-2.67-4.03-3.8-13.08-9.73-25.68-20.07-37.95-30.75,7.63-51.46-33.11-93-82.51-88.71-7.34-9.7-14.41-19.57-21.08-29.78,104.55-90.75,250.79-209.8,292-336.68,6.27-19.31,10.59-52,10.29-77.7-.03-2.15-.89-4.03-2.13-5.6,62.61-51.29,140.77-75.32,231.82-77.02.15,3.51,58.12,165.36-18.15,279.39Z"/><path class="cls-1" d="M3426.79,1237.56c-1.93,4.81.41,10.29,5.24,12.22,164.84,66.05,303.29,187.83,389.83,342.92,1.72,3.07,4.92,4.81,8.22,4.81,7.06,0,11.74-7.66,8.2-14-88.64-158.82-230.44-283.55-399.26-351.19-4.83-1.91-10.3.4-12.24,5.24Z"/><path class="cls-1" d="M3856.51,1445.91c4.54-2.54,6.16-8.27,3.63-12.81-58.79-105.33-152.85-188.07-264.84-232.95-4.83-1.95-10.3.4-12.24,5.24-1.93,4.81.41,10.29,5.24,12.22,108.01,43.29,198.72,123.08,255.42,224.69,2.51,4.48,8.22,6.17,12.8,3.62Z"/><path class="cls-1" d="M2853.91,760.98c-7.04,13.43-5.12,31.62,4.91,46.32,8.34,12.2,20.28,20.41,30.82,27.65,10.14,6.99,20.96-8.43,10.66-15.51-9.63-6.61-19.58-13.45-25.93-22.75-5.04-7.4-8.17-18.61-3.79-26.97,7.12-13.53,60.72-33.46,89.88-106.53,1.93-4.83-.42-10.31-5.25-12.24-4.82-1.84-10.3.42-12.23,5.25-13.17,33.02-36.24,62.16-64.96,82.04-9.55,6.52-18.7,12.44-24.11,22.73Z"/><path class="cls-1" d="M2994.68,902.4c-11.26,27.08-41.08,45.24-69.4,42.19-12.28-1.5-14.46,17.38-2,18.7,37.39,3.92,74.36-19.01,88.76-53.65,4.81-11.52-12.6-18.66-17.36-7.24Z"/><path class="cls-1" d="M2997.26,817.71c13.3,2.56,27.8-16.02,32.4-41.49,4.6-25.47-2.45-48.19-15.75-50.75-13.29-2.56-27.8,16.02-32.4,41.49-4.59,25.46,2.46,48.19,15.75,50.74Z"/><path class="cls-1" d="M2802.47,678.72c-13.3-2.56-27.8,16.02-32.4,41.49-4.59,25.47,2.46,48.19,15.75,50.74,13.3,2.56,27.8-16.02,32.4-41.48,4.6-25.48-2.46-48.19-15.75-50.75Z"/><path class="cls-1" d="M3329.61,874.74c27.43,0,42.57-32.01,26.37-53.93-7.43-9.99-22.52,1.21-15.12,11.21,7.46,10.06-.15,24.94-12.48,23.85-12.41-1.17-15.6,18.87,1.23,18.87Z"/><path class="cls-1" d="M2799.25,581.3c25.63-4.17,52.66,3.8,72.28,21.4,9.15,8.22,21.85-5.67,12.57-14-23.85-21.39-56.71-31.07-87.9-25.96-12.42,2.05-9.04,20.74,3.05,18.56Z"/><path class="cls-1" d="M3017.31,638.15c28.24-5.81,59.99,7.09,77.08,31.16,7.01,9.93,22.64-.61,15.34-10.88-21.56-30.43-60.18-45.93-96.15-38.73-12.28,2.48-8.37,21,3.73,18.45Z"/><path class="cls-1" d="M2929.85,1323.51c4.19-3.09,5.09-8.97,2.01-13.16-3.09-4.19-8.96-5.11-13.16-2.02-52.52,38.67-126.13,30.7-169.29-17.82-3.45-3.91-9.39-4.23-13.28-.79-3.88,3.45-4.23,9.41-.77,13.28,49.9,56.12,134.44,64.62,194.49,20.5Z"/><path class="cls-1" d="M1594.05,950.15c153.42-138.83,309.21-262.65,455.44-396.33,9.18-8.41-3.52-22.28-12.7-13.89-144.93,132.48-302.3,257.76-455.36,396.26-3.85,3.49-4.15,9.44-.66,13.3,3.49,3.84,9.41,4.14,13.28.66Z"/><path class="cls-1" d="M1487.91,490.04c-14.3,323.42-62.13,370.67-37.08,375.73,5,1.03,10.04-2.21,11.08-7.37,29.07-144.58,38.27-220.15,44.79-367.52.55-12.34-18.26-13.45-18.8-.85Z"/><path class="cls-1" d="M1677.56,1055.24c184.66-45.3,315.98,6.04,327.48,6.04,10.84,0,13.02-15.5,2.54-18.47-108.94-30.79-224.59-32.83-334.5-5.84-5.04,1.23-8.13,6.32-6.9,11.37,1.24,5.07,6.35,8.14,11.38,6.89Z"/></svg>