<svg width="218" height="217" viewBox="0 0 218 217" fill="none" xmlns="http://www.w3.org/2000/svg">
<path d="M95.1984 45.0157V64.1673C95.1984 82.897 109.328 98.0809 126.756 98.0809C144.185 98.0809 158.314 113.265 158.314 131.995C158.314 133.664 157.023 135.017 155.43 135.017H71.8935C45.7649 135.017 24.584 112.254 24.584 84.1764V43.3127C24.584 32.145 33.0088 23.0918 43.4005 23.0918H74.796C86.0636 23.0918 95.1984 32.908 95.1984 45.0175V45.0157Z" fill="white"/>
<path d="M155.429 135.531H71.8927C45.5228 135.531 24.0693 112.493 24.0693 84.1756V43.3119C24.0693 31.8786 32.7407 22.5771 43.3997 22.5771H74.7953C86.3284 22.5771 95.7114 32.6433 95.7114 45.0167V64.1682C95.7114 82.5846 109.638 97.568 126.755 97.568C143.873 97.568 158.828 113.012 158.828 131.995C158.828 133.945 157.303 135.532 155.429 135.532V135.531ZM43.3997 23.6049C33.3075 23.6049 25.097 32.4454 25.097 43.3119V84.1756C25.097 111.926 46.0896 134.502 71.8927 134.502H155.429C156.736 134.502 157.799 133.377 157.799 131.994C157.799 113.577 143.873 98.5949 126.755 98.5949C109.638 98.5949 94.6837 83.1505 94.6837 64.1674V45.0158C94.6837 33.2093 85.7616 23.6049 74.7953 23.6049H43.3997Z" fill="#FB5457"/>
<path d="M85.563 204.19H93.1328L93.1328 116.05H85.563L85.563 204.19Z" fill="white"/>
<path d="M93.1325 204.704H85.5627C85.2788 204.704 85.0488 204.474 85.0488 204.19V116.05C85.0488 115.766 85.2788 115.536 85.5627 115.536H93.1325C93.4164 115.536 93.6464 115.766 93.6464 116.05V204.19C93.6464 204.474 93.4164 204.704 93.1325 204.704ZM86.0765 203.675H92.6187V116.563H86.0765V203.675Z" fill="#FB5457"/>
<path d="M124.827 204.294L91.3253 201.353H88.2526L54.0508 204.294V206.627H124.827V204.294Z" fill="white"/>
<path d="M124.827 207.141H54.051C53.7671 207.141 53.5371 206.911 53.5371 206.628V204.294C53.5371 204.027 53.7411 203.805 54.0076 203.782L88.2094 200.841L91.3255 200.839L124.872 203.782C125.138 203.806 125.341 204.028 125.341 204.294V206.628C125.341 206.911 125.111 207.141 124.827 207.141ZM54.5648 206.114H124.312V204.765L91.2795 201.865L88.2519 201.867L54.5639 204.766V206.113L54.5648 206.114Z" fill="#FB5457"/>
<path d="M114.671 91.25H183.771V93.5728C183.771 94.3383 183.149 94.9607 182.383 94.9607H116.058C115.292 94.9607 114.67 94.3392 114.67 93.5728V91.25H114.671Z" fill="#FB5457"/>
<path d="M183.773 91.3154H144.234L156.797 54.3369C157.549 53.1799 158.858 52.4785 160.266 52.4785H193.69C195.206 52.4785 196.183 53.9498 195.689 55.2492C195.492 55.7656 195.28 56.276 195.107 56.8012L183.773 91.3154Z" fill="#FB5457"/>
<path d="M174.028 72.8832C174.497 71.3192 173.775 69.7207 172.415 69.3129C171.055 68.9051 169.572 69.8424 169.103 71.4064C168.634 72.9704 169.356 74.5689 170.717 74.9767C172.077 75.3845 173.559 74.4472 174.028 72.8832Z" fill="white"/>
<path d="M67.6408 126.835L59.7949 134.236L65.1626 138.773L74.5075 132.092L67.6408 126.835Z" fill="white"/>
<path d="M65.1611 139.287C65.043 139.287 64.925 139.247 64.8295 139.166L59.4618 134.629C59.3498 134.534 59.2839 134.396 59.2795 134.25C59.2752 134.104 59.3342 133.963 59.441 133.862L67.2868 126.461C67.47 126.288 67.7521 126.274 67.9517 126.427L74.8185 131.684C74.9478 131.783 75.0224 131.937 75.0198 132.1C75.0172 132.263 74.9374 132.415 74.8046 132.51L65.4597 139.192C65.3703 139.256 65.2652 139.287 65.1611 139.287ZM60.565 134.215L65.188 138.123L73.6423 132.077L67.6748 127.509L60.5659 134.215H60.565Z" fill="#FB5457"/>
<path d="M60.865 131.314C59.6698 132.356 57.4911 134.325 55.7577 136.282C54.6701 137.51 54.6952 139.362 55.7881 140.586C58.8773 144.045 66.3377 151.368 73.5803 156.579C74.0759 156.936 75.1792 157.306 76.3996 156.354C80.5851 153.087 74.3546 146.108 69.3671 136.636L66.9531 136.771C65.6702 136.842 64.4689 136.136 63.9056 134.981L62.2581 131.601C61.9995 131.07 61.3094 130.928 60.865 131.316V131.314Z" fill="white"/>
<path d="M74.793 157.47C74.1889 157.47 73.6586 157.269 73.2801 156.996C66.0384 151.784 58.6222 144.531 55.4037 140.928C54.1303 139.502 54.1164 137.358 55.3724 135.941C57.1336 133.953 59.3574 131.945 60.5266 130.926C60.859 130.637 61.2982 130.521 61.7314 130.609C62.1654 130.696 62.5256 130.976 62.72 131.373L64.3675 134.753C64.8414 135.726 65.8483 136.312 66.9246 136.256L69.3385 136.122C69.5503 136.114 69.7283 136.218 69.822 136.396C71.0641 138.753 72.413 141.007 73.6039 142.994C77.2964 149.16 80.2128 154.03 76.7165 156.758C76.0551 157.275 75.3885 157.471 74.7939 157.471L74.793 157.47ZM61.2019 131.702C60.0518 132.705 57.8644 134.678 56.1423 136.622C55.2327 137.649 55.2448 139.206 56.171 140.244C59.3591 143.814 66.7059 150.998 73.8808 156.162C74.0483 156.282 74.9423 156.837 76.0838 155.947C78.864 153.778 76.2877 149.476 72.722 143.522C71.5736 141.605 70.2786 139.442 69.0668 137.166L66.981 137.282C65.4803 137.366 64.0984 136.549 63.4422 135.204L61.7947 131.824C61.7418 131.715 61.6437 131.639 61.5257 131.616C61.4571 131.601 61.3243 131.594 61.201 131.701L61.2019 131.702Z" fill="#FB5457"/>
<path d="M56.0198 135.989C56.0198 135.989 55.8427 136.186 55.7577 136.282C54.6701 137.51 54.6952 139.362 55.7881 140.586C58.8773 144.045 66.3377 151.368 73.5803 156.579C74.0759 156.936 75.1792 157.306 76.3996 156.353C76.7737 156.062 77.2806 155.39 77.2806 155.39L76.7841 155C69.709 149.453 63.0489 143.394 56.8583 136.873L56.0198 135.99V135.989Z" fill="white"/>
<path d="M74.793 157.47C74.1889 157.47 73.6586 157.268 73.2801 156.996C66.0384 151.784 58.6222 144.531 55.4037 140.928C54.1303 139.502 54.1164 137.358 55.3724 135.941L55.6371 135.645C55.7326 135.538 55.8689 135.477 56.0121 135.475C56.1415 135.467 56.2925 135.532 56.3914 135.635L57.2299 136.518C63.3832 142.999 70.0685 149.081 77.1002 154.594L77.5967 154.984C77.8172 155.157 77.8588 155.474 77.6896 155.698C77.6331 155.773 77.1297 156.433 76.7139 156.757C76.0525 157.273 75.3868 157.47 74.7913 157.47H74.793ZM56.0347 136.751C55.2353 137.776 55.283 139.249 56.171 140.243C59.3591 143.813 66.7059 150.998 73.8808 156.162C74.0483 156.282 74.9423 156.837 76.0838 155.947C76.2226 155.839 76.3988 155.65 76.5525 155.471L76.4665 155.405C69.3958 149.861 62.6723 143.745 56.4852 137.227L56.0347 136.752V136.751Z" fill="#FB5457"/>
<path d="M67.3864 143.037C67.1225 143.037 66.8985 142.835 66.8751 142.568C66.8499 142.285 67.0591 142.036 67.3421 142.011L71.8965 141.609C72.1821 141.582 72.4294 141.793 72.4537 142.076C72.4789 142.359 72.2697 142.608 71.9868 142.633L67.4324 143.035C67.4167 143.037 67.402 143.037 67.3864 143.037Z" fill="#FB5457"/>
<path d="M69.5916 146.225C69.3459 146.225 69.1281 146.048 69.0855 145.798C69.0378 145.518 69.2261 145.252 69.5056 145.204L73.8925 144.454C74.1755 144.408 74.4376 144.594 74.4862 144.874C74.534 145.155 74.3456 145.42 74.0661 145.468L69.6792 146.218C69.6497 146.223 69.6211 146.226 69.5924 146.226L69.5916 146.225Z" fill="#FB5457"/>
<path d="M154.48 86.1862C158.158 86.2001 161.678 87.9083 163.797 90.9159C165.304 93.0547 166.219 95.9486 165.089 99.6558C163.399 105.195 161.269 109.066 129.536 115.242C101.7 120.659 80.9983 131.197 76.3328 133.704C75.6532 134.069 74.8581 134.149 74.1203 133.924C71.7845 133.208 66.8586 131.216 66.2397 126.998C66.1008 126.052 66.5235 125.11 67.2978 124.549L73.0431 120.385L67.5938 117.48C61.3746 114.164 56.4565 108.705 54.2231 102.015C52.2258 96.0319 51.2363 85.793 51.2363 85.793L154.481 86.1879L154.48 86.1862Z" fill="#FB5457"/>
<path d="M195.91 211.507L172.307 113.567L148.705 211.507H143.047L168.98 103.102L175.632 103.093L201.567 211.507H195.91Z" fill="white"/>
<path d="M201.567 212.021H195.909C195.671 212.021 195.465 211.858 195.409 211.628L172.306 115.761L149.203 211.628C149.147 211.858 148.941 212.021 148.703 212.021H143.045C142.888 212.021 142.739 211.949 142.642 211.825C142.544 211.701 142.509 211.54 142.545 211.387L168.478 102.983C168.534 102.752 168.741 102.589 168.978 102.588L175.63 102.578C175.868 102.578 176.074 102.741 176.13 102.973L202.065 211.387C202.101 211.54 202.066 211.701 201.969 211.825C201.87 211.948 201.722 212.021 201.565 212.021H201.567ZM196.314 210.993H200.915L175.225 103.608L169.385 103.616L143.697 210.993H148.298L171.806 113.446C171.862 113.215 172.069 113.053 172.306 113.053C172.544 113.053 172.751 113.215 172.806 113.446L196.314 210.993H196.314Z" fill="#FB5457"/>
<path d="M136.756 190.07C137.124 193.507 136.812 196.983 135.838 200.3L149.421 200.153C146.337 198.418 144.247 195.335 143.778 191.827L143.421 189.149L136.757 190.07H136.756Z" fill="white"/>
<path d="M135.838 200.814C135.677 200.814 135.526 200.738 135.428 200.61C135.33 200.479 135.299 200.311 135.345 200.154C136.305 196.886 136.608 193.511 136.246 190.123C136.217 189.847 136.412 189.597 136.687 189.559L143.351 188.639C143.486 188.619 143.623 188.656 143.733 188.739C143.842 188.821 143.913 188.945 143.93 189.08L144.288 191.757C144.733 195.087 146.747 198.057 149.674 199.703C149.877 199.817 149.978 200.053 149.92 200.279C149.861 200.505 149.66 200.663 149.427 200.665L135.844 200.812H135.839L135.838 200.814ZM137.316 190.511C137.593 193.637 137.325 196.749 136.518 199.778L147.747 199.657C145.318 197.775 143.68 194.975 143.269 191.896L142.98 189.73L137.317 190.512L137.316 190.511Z" fill="#FB5457"/>
<path d="M135.71 196.731C135.277 198.396 134.39 203.083 134.037 205.899C133.815 207.665 134.972 209.309 136.699 209.734C141.583 210.937 153.195 210.642 162.871 210.867C163.533 210.883 164.748 210.537 165.257 208.935C167.005 203.443 156.564 202.009 146.298 196.587C146.298 196.587 145.706 197.086 144.825 197.562C143.35 198.361 140.926 198.29 139.467 197.461L137.131 196.132C136.574 195.816 135.869 196.111 135.709 196.731H135.71Z" fill="white"/>
<path d="M162.916 211.383C162.897 211.383 162.878 211.383 162.86 211.383C160.385 211.325 157.747 211.302 155.196 211.279C147.52 211.21 140.268 211.145 136.577 210.236C134.585 209.744 133.274 207.854 133.527 205.837C133.88 203.029 134.763 198.335 135.213 196.605C135.329 196.154 135.643 195.792 136.071 195.611C136.501 195.429 136.981 195.457 137.387 195.688L139.724 197.017C141.055 197.774 143.28 197.818 144.582 197.113C145.402 196.67 145.964 196.201 145.969 196.196C146.13 196.062 146.356 196.037 146.54 196.135C149.709 197.808 152.917 199.108 155.747 200.255C162.089 202.826 167.098 204.855 165.749 209.093C165.209 210.788 163.9 211.384 162.918 211.384L162.916 211.383ZM136.65 196.519C136.59 196.519 136.529 196.532 136.472 196.556C136.34 196.611 136.244 196.723 136.208 196.861C135.77 198.549 134.886 203.266 134.547 205.964C134.359 207.464 135.337 208.87 136.822 209.237C140.398 210.117 147.926 210.184 155.205 210.25C157.759 210.273 160.401 210.297 162.883 210.355C163.111 210.368 164.281 210.309 164.768 208.781C165.779 205.605 162.045 203.917 155.359 201.208C152.594 200.086 149.47 198.821 146.354 197.198C146.085 197.399 145.634 197.712 145.07 198.017C143.469 198.883 140.842 198.835 139.215 197.91L136.877 196.58C136.806 196.54 136.729 196.519 136.65 196.519H136.65Z" fill="#FB5457"/>
<path d="M133.77 207.176C133.762 207.225 133.756 207.26 133.754 207.274C133.532 209.041 135.242 210.088 136.869 210.806C141.796 212.977 161.77 211.194 161.77 211.194C161.77 211.194 164.448 211.222 165.16 209.615C165.264 209.38 165.314 209.029 165.338 208.737C165.363 208.423 165.333 208.107 165.257 207.801L165.079 207.082C162.361 208.162 150.125 208.985 141.247 207.885C137.521 207.424 135.365 205.817 134.122 205.204C134.122 205.204 133.949 206.167 133.771 207.176H133.77Z" fill="white"/>
<path d="M147.098 212.4C142.738 212.4 138.608 212.135 136.661 211.277C135.063 210.573 132.97 209.386 133.243 207.211C133.245 207.197 133.252 207.152 133.263 207.088L133.615 205.113C133.643 204.954 133.745 204.818 133.889 204.745C134.033 204.672 134.203 204.671 134.348 204.742C134.592 204.863 134.871 205.02 135.187 205.199C136.464 205.922 138.394 207.014 141.309 207.375C150.096 208.462 162.221 207.664 164.889 206.603C165.027 206.549 165.182 206.556 165.314 206.624C165.446 206.693 165.542 206.814 165.578 206.958L165.756 207.678C165.848 208.047 165.879 208.417 165.849 208.778C165.814 209.224 165.739 209.575 165.629 209.823C164.79 211.717 161.893 211.705 161.765 211.708C161.295 211.751 153.916 212.399 147.099 212.399L147.098 212.4ZM134.275 207.265L134.263 207.338C134.118 208.491 134.986 209.415 137.075 210.336C141.826 212.43 161.525 210.7 161.723 210.683C162.436 210.68 164.219 210.467 164.688 209.408C164.717 209.343 164.787 209.145 164.823 208.697C164.843 208.446 164.821 208.187 164.756 207.926L164.711 207.743C161.121 208.746 149.605 209.441 141.181 208.396C138.063 208.009 136.027 206.858 134.68 206.095C134.619 206.06 134.559 206.026 134.501 205.993L134.274 207.265H134.275Z" fill="#FB5457"/>
<path d="M147.413 201.622C147.261 201.622 147.11 201.554 147.008 201.426C146.833 201.203 146.871 200.88 147.094 200.704L149.981 198.429C150.204 198.254 150.527 198.292 150.703 198.515C150.878 198.738 150.84 199.06 150.617 199.237L147.731 201.511C147.637 201.586 147.524 201.621 147.413 201.621V201.622Z" fill="#FB5457"/>
<path d="M151.34 203.126C151.187 203.126 151.036 203.057 150.934 202.927C150.76 202.702 150.8 202.38 151.025 202.206L153.551 200.244C153.775 200.07 154.098 200.11 154.272 200.335C154.446 200.56 154.406 200.882 154.181 201.056L151.655 203.018C151.562 203.091 151.45 203.126 151.34 203.126Z" fill="#FB5457"/>
<path d="M118.664 110.877C118.664 110.877 129.782 113.237 135.668 120.656C141.428 127.916 143.505 138.149 146.168 188.298C146.275 190.32 144.945 192.132 143.022 192.547C140.299 193.137 136.529 193.563 134.228 192.178C130.303 189.817 128.474 146.62 119.646 139.202C110.818 131.784 67.3273 120.993 60.1333 111.552C52.9393 102.11 70.5971 102.11 70.5971 102.11L118.664 110.877Z" fill="#FB5457"/>
<path d="M82.5241 131.699C82.3349 131.699 82.1526 131.594 82.0632 131.413C81.9373 131.159 82.0415 130.851 82.2958 130.724C84.3903 129.687 86.4145 128.617 88.3718 127.582C96.998 123.023 105.147 118.716 120.252 116.082C120.533 116.038 120.798 116.221 120.846 116.5C120.895 116.78 120.707 117.046 120.428 117.095C105.483 119.7 97.4042 123.97 88.8518 128.491C86.8893 129.529 84.859 130.601 82.7524 131.645C82.6795 131.681 82.6013 131.698 82.525 131.698L82.5241 131.699Z" fill="white"/>
<path d="M36.369 42.0301C38.1128 38.1909 42.7853 35.724 46.3718 34.3361C48.8066 33.3943 51.3871 32.8883 53.9955 32.7859L63.3595 32.4187C66.8662 32.167 70.9892 32.3258 75.4915 33.1148C81.5206 34.172 86.9708 37.3706 90.8134 42.1351C92.6059 44.3572 94.2108 46.3128 94.3384 46.3518C99.4023 53.4607 100.415 57.0143 104.076 59.6669C110.187 64.0963 129.807 76.3673 129.807 76.3673C133.371 75.8343 131.727 79.1726 132.377 80.6508C133.636 83.517 126.551 82.1933 126.551 82.1933C123.981 81.6794 104.715 79.8063 96.2775 75.0245C90.3143 71.6453 86.3094 64.5911 83.1151 61.1278C82.7983 60.7841 82.2176 61.0358 82.2576 61.5019C82.9285 69.2835 89.3422 78.526 91.2978 81.1829C91.6476 81.6577 92.1779 81.9667 92.7638 82.0336L106.879 83.6411C107.072 83.655 107.285 83.7357 107.494 83.8477C108.419 84.3424 109.021 85.2842 109.16 86.3241C109.383 87.9854 109.243 91.1016 108.732 92.1067L108.248 93.0589C107.857 93.8262 107.076 94.3166 106.215 94.3305C98.7157 94.4529 67.0207 94.6222 58.0221 94.0831C49.6416 93.5814 43.9518 90.2249 39.4712 78.5164C37.691 73.864 31.7617 52.1718 36.369 42.0283V42.0301Z" fill="white"/>
<path d="M84.3046 94.9724C73.8512 94.9724 62.7929 94.8874 57.9946 94.5992C50.0594 94.1235 43.7915 91.2383 38.9941 78.7035C37.5836 75.0188 31.0224 52.5654 35.904 41.8196C37.7173 37.8276 42.4982 35.287 46.1898 33.8591C48.6306 32.9148 51.2511 32.3818 53.9792 32.275L63.3432 31.9079C67.1572 31.6345 71.3948 31.8775 75.5846 32.611C81.7509 33.6925 87.3026 36.9614 91.2173 41.8152C93.8942 45.1345 94.4949 45.8011 94.6277 45.9269C94.6798 45.9617 94.7249 46.0051 94.7613 46.0563C96.6319 48.682 97.9747 50.8624 99.0545 52.6132C100.918 55.6373 102.149 57.6354 104.381 59.2534C110.121 63.4128 128.053 74.6621 129.926 75.8356C130.881 75.7193 131.576 75.8703 132.049 76.2887C132.777 76.9319 132.75 78.0065 132.727 78.9543C132.713 79.5177 132.698 80.1001 132.851 80.4464C133.215 81.2771 132.996 81.8248 132.748 82.1382C131.605 83.5791 127.31 82.8595 126.46 82.7006C126.021 82.613 125.073 82.4828 123.76 82.3031C117.572 81.4551 103.079 79.4699 96.0269 75.4737C91.6904 73.0164 88.3685 68.6573 85.6986 65.1549C84.6422 63.7687 83.6431 62.4589 82.7396 61.4789C83.4305 69.1026 89.7825 78.2573 91.7138 80.8813C91.9785 81.2407 92.383 81.4759 92.824 81.5262L106.939 83.1338C107.169 83.1503 107.438 83.2371 107.738 83.3976C108.784 83.9566 109.506 85.0269 109.671 86.2594C109.891 87.8982 109.786 91.1749 109.192 92.3433L108.708 93.2954C108.229 94.2355 107.278 94.8309 106.224 94.8474C102.943 94.9004 93.876 94.9724 84.3019 94.9724H84.3046ZM36.8397 42.244C32.4233 51.9674 37.9872 73.196 39.9541 78.3355C44.5701 90.3972 50.3024 93.1088 58.0554 93.5732C67.2223 94.1218 99.3548 93.93 106.209 93.8188C106.881 93.8076 107.488 93.4291 107.793 92.8285L108.277 91.8763C108.721 91.0013 108.869 87.998 108.654 86.3948C108.532 85.4895 108.01 84.7075 107.254 84.3038C107.034 84.1858 106.903 84.1615 106.845 84.1571L92.7085 82.5479C91.9846 82.4654 91.3206 82.0809 90.8866 81.4915C88.9154 78.8129 82.4297 69.4584 81.7483 61.5492C81.711 61.1152 81.9453 60.7211 82.3455 60.5449C82.7482 60.367 83.1996 60.4607 83.4956 60.7828C84.4321 61.7975 85.4442 63.1264 86.5162 64.5325C89.1289 67.9603 92.3796 72.2265 96.5329 74.5796C103.413 78.4778 117.769 80.4447 123.898 81.2849C125.228 81.4672 126.189 81.5983 126.653 81.6912C128.454 82.0262 131.385 82.1989 131.94 81.4985C131.979 81.449 132.1 81.298 131.907 80.8596C131.663 80.3032 131.68 79.6036 131.696 78.9283C131.716 78.1697 131.735 77.385 131.366 77.0586C131.107 76.8295 130.609 76.7696 129.883 76.8772C129.762 76.8946 129.638 76.8694 129.534 76.8043C129.338 76.6819 109.83 64.4735 103.774 60.084C101.376 58.3463 100.103 56.2796 98.1743 53.1504C97.1093 51.4223 95.7856 49.274 93.9515 46.696C93.6416 46.4122 92.8821 45.5199 90.4127 42.4584C86.6542 37.799 81.323 34.6603 75.4023 33.6222C71.2941 32.9017 67.1425 32.6648 63.3953 32.9321L54.014 33.3002C51.3995 33.4034 48.8902 33.913 46.5552 34.8165C43.0424 36.1758 38.5045 38.5672 36.8345 42.2432L36.8397 42.244Z" fill="#FB5457"/>
<path d="M128.783 93.9951H112.4V90.8408C112.4 89.8009 113.244 88.9564 114.284 88.9564H126.899C127.939 88.9564 128.783 89.8009 128.783 90.8408V93.9951Z" fill="white"/>
<path d="M128.782 94.5079H112.399C112.115 94.5079 111.885 94.2778 111.885 93.994V93.5357C111.885 90.726 114.17 88.4414 116.98 88.4414H124.202C127.011 88.4414 129.297 90.7269 129.297 93.5357V93.994C129.297 94.2778 129.067 94.5079 128.783 94.5079H128.782ZM112.913 93.4793H128.268C128.238 91.2624 126.426 89.4683 124.202 89.4683H116.98C114.756 89.4683 112.944 91.2624 112.913 93.4793Z" fill="#FB5457"/>
<path d="M105.303 86.9841C105.593 86.4173 106.079 85.9694 106.678 85.7541C107.107 85.6005 107.53 85.3965 107.932 85.1838L113.507 82.2292C114.551 81.7179 116.044 82.9088 117.128 83.2647C120.4 84.3384 127.173 86.866 126.615 89.2409C126.013 91.8032 120.192 90.5906 118.125 90.0733C117.653 89.9552 113.376 91.5029 112.023 91.6044C110.155 91.7459 109.723 91.2711 108.81 90.792C108.393 90.5732 107.93 90.4752 107.426 90.4717C106.657 90.4665 105.924 90.1436 105.442 89.5429L105.431 89.529C104.9 88.8668 104.807 87.9536 105.194 87.1976L105.303 86.9832V86.9841Z" fill="white"/>
<path d="M111.41 92.144C110.151 92.144 109.571 91.8124 108.961 91.4643C108.838 91.394 108.711 91.3211 108.572 91.2482C108.243 91.0746 107.867 90.9895 107.424 90.986C106.477 90.98 105.609 90.5711 105.042 89.8655C104.374 89.0322 104.259 87.8986 104.738 86.9637L104.847 86.7493C105.205 86.0506 105.794 85.5255 106.506 85.2703C106.853 85.1461 107.23 84.9743 107.692 84.7295L113.268 81.7748C114.243 81.2992 115.337 81.846 116.301 82.3303C116.661 82.5118 117.002 82.6819 117.29 82.7765C124.296 85.075 127.603 87.2901 127.116 89.3594C126.981 89.9375 126.637 90.3984 126.096 90.7282C124.215 91.874 120.258 91.1345 118.039 90.5824C117.751 90.5972 116.613 90.9357 115.694 91.2083C114.28 91.6284 112.819 92.0615 112.064 92.1188C111.827 92.137 111.61 92.1448 111.41 92.1448V92.144ZM114.084 82.6177C113.956 82.6177 113.838 82.6394 113.734 82.6906L108.174 85.6383C107.667 85.9065 107.248 86.0975 106.854 86.2381C106.389 86.4047 106.001 86.7528 105.763 87.2189L105.653 87.4324C105.359 88.0071 105.43 88.7049 105.834 89.2084C106.217 89.6849 106.796 89.954 107.432 89.9583C108.035 89.9627 108.579 90.0903 109.052 90.3376C109.202 90.4166 109.34 90.4956 109.473 90.572C110.111 90.9366 110.572 91.2013 111.987 91.0928C112.633 91.0442 114.168 90.5885 115.402 90.2222C117.389 89.632 117.932 89.4966 118.252 89.5755C121.698 90.4366 124.431 90.5399 125.561 89.8498C125.863 89.6658 126.044 89.428 126.117 89.1242C126.431 87.7875 122.841 85.68 116.97 83.7539C116.61 83.6349 116.236 83.4483 115.841 83.2496C115.244 82.9501 114.583 82.6185 114.085 82.6185L114.084 82.6177Z" fill="#FB5457"/>
<path d="M125.024 78.2124C125.452 77.7419 126.04 77.4373 126.674 77.3878C127.128 77.3522 127.588 77.2671 128.033 77.1673L134.19 75.7846C135.332 75.5667 136.459 77.1083 137.411 77.7367C140.284 79.6333 146.153 83.8561 144.989 86.0001C143.734 88.3133 138.438 85.6103 136.58 84.5679C136.156 84.3292 131.622 84.6963 130.291 84.4385C128.45 84.0827 128.16 83.5115 127.404 82.8084C127.06 82.4882 126.639 82.2712 126.154 82.1349C125.412 81.9274 124.79 81.4231 124.484 80.7166L124.477 80.7001C124.139 79.9215 124.29 79.0162 124.862 78.3886L125.024 78.2107L125.024 78.2124Z" fill="white"/>
<path d="M143.113 87.4244C140.985 87.4244 138.074 85.9956 136.362 85.0374C136.08 84.9757 134.893 85.0018 133.935 85.0235C132.461 85.0565 130.937 85.0903 130.193 84.9454C128.49 84.6164 127.947 84.073 127.373 83.4984C127.273 83.3977 127.169 83.2944 127.054 83.1877C126.781 82.9333 126.442 82.7528 126.015 82.633C125.102 82.3769 124.372 81.7537 124.013 80.9239C123.587 79.9448 123.775 78.8216 124.482 78.0456L124.644 77.8677C125.174 77.287 125.88 76.9363 126.635 76.8773C127.005 76.8478 127.413 76.7818 127.921 76.6672L134.078 75.2854C135.145 75.0788 136.055 75.8982 136.858 76.6195C137.158 76.8894 137.441 77.1438 137.695 77.3104C143.85 81.3727 146.456 84.3803 145.442 86.2482C145.159 86.7708 144.706 87.124 144.096 87.3002C143.796 87.387 143.465 87.4261 143.114 87.4261L143.113 87.4244ZM135.481 83.9715C136.316 83.9715 136.636 84.0114 136.832 84.1216C139.929 85.8602 142.537 86.6796 143.811 86.3107C144.151 86.2126 144.389 86.0312 144.538 85.7561C145.193 84.5495 142.285 81.5706 137.128 78.1671C136.811 77.9579 136.5 77.6785 136.171 77.3833C135.546 76.8226 134.841 76.1864 134.287 76.2905L128.147 77.6689C127.59 77.7939 127.136 77.8677 126.715 77.9007C126.222 77.9389 125.756 78.1723 125.404 78.5586L125.242 78.7365C124.807 79.2139 124.691 79.9049 124.948 80.4969C125.191 81.0584 125.679 81.4699 126.293 81.6417C126.873 81.8041 127.365 82.0705 127.755 82.4342C127.879 82.5497 127.992 82.6625 128.101 82.7701C128.62 83.2901 128.996 83.6659 130.389 83.935C131.024 84.0574 132.627 84.0227 133.913 83.994C134.578 83.9793 135.087 83.9706 135.482 83.9706L135.481 83.9715Z" fill="#FB5457"/>
<path d="M86.7519 82.0388C86.7294 82.0388 86.7059 82.037 86.6825 82.0344C85.8475 81.9225 84.8788 81.8252 83.7573 81.7124C73.9784 80.7324 55.7756 78.9079 49.4496 59.627C49.3611 59.3571 49.5078 59.0671 49.7777 58.9786C50.0477 58.8883 50.3376 59.0368 50.4261 59.3067C56.5438 77.9522 74.3135 79.7325 83.8597 80.689C84.9907 80.8027 85.9672 80.9008 86.8196 81.0145C87.1009 81.0518 87.2979 81.3114 87.2606 81.5926C87.2258 81.8513 87.0054 82.0388 86.7519 82.0388Z" fill="#FB5457"/>
<path d="M54.3107 35.2625L53.0156 22.6982L63.8491 26.3048L64.7918 33.668C65.014 35.6462 63.5193 36.9968 63.5193 36.9968C61.6922 38.8326 58.7696 38.9967 56.4538 37.8509L55.9173 37.5853C55.0198 37.1418 54.4131 36.2642 54.3098 35.2625H54.3107Z" fill="white"/>
<path d="M59.5223 39.0988C58.4286 39.0988 57.2968 38.841 56.2256 38.3115L55.6892 38.0459C54.6277 37.5208 53.9202 36.5 53.7978 35.3152L52.5028 22.7509C52.4846 22.5773 52.5566 22.4063 52.6929 22.2969C52.8283 22.1876 53.0106 22.1546 53.1772 22.2101L64.0107 25.8167C64.1982 25.8792 64.3328 26.0432 64.3579 26.2394L65.3006 33.6026C65.5506 35.8247 63.9326 37.3159 63.8632 37.3784C62.7374 38.5103 61.175 39.0997 59.5223 39.0997V39.0988ZM54.8195 35.2093C54.9054 36.04 55.4002 36.7561 56.144 37.1232L56.6805 37.3888C58.9364 38.5051 61.5986 38.1952 63.1531 36.6337C63.1844 36.6042 64.4673 35.4055 64.2789 33.7241L63.378 26.689L53.606 23.4357L54.8195 35.2084V35.2093Z" fill="#FB5457"/>
<path d="M64.8616 4.61816C62.1526 4.87248 65.9449 7.12494 55.5766 5.73701C51.4476 5.18409 54.1436 9.50153 53.0716 9.36178C49.1144 8.84271 49.2498 8.85573 47.4721 9.62565C46.2951 10.1352 45.8368 12.5196 46.322 14.1748C46.9617 16.3596 48.8869 16.6556 51.2236 21.1223C52.865 24.2593 52.8867 26.3138 54.2842 26.5951C55.6973 26.8789 56.4169 24.9276 57.9836 25.1203C60.0121 25.3703 60.1345 28.8032 62.2394 29.9134C63.5657 30.6139 66.4067 30.5991 70.5349 27.7486C71.2041 27.2868 71.4515 26.4093 71.1208 25.6637C70.6972 24.708 70.1564 23.5041 69.5427 22.3965C66.6202 17.1208 64.4424 16.1591 64.945 14.6002C65.7149 12.2114 70.1 12.8451 70.521 10.9155C70.9576 8.91129 68.5697 4.27009 64.8608 4.61816H64.8616Z" fill="#FB5457"/>
<path d="M56.9375 15.6815L57.9218 17.0008C58.3853 17.6223 58.8054 18.2742 59.1795 18.9547C59.8809 20.2298 61.1039 22.4128 61.8816 23.5837C63.0239 25.3032 68.58 22.142 68.58 22.142L68.7631 20.945L69.4063 20.5605C69.5304 20.4858 69.6407 20.386 69.7119 20.2584C69.8889 19.9416 69.8334 19.5649 69.6051 19.3166C68.3534 17.9574 65.7052 14.8812 64.4778 11.9439C64.4778 11.9439 59.9321 11.4803 56.9375 15.6823V15.6815Z" fill="white"/>
<path d="M63.1347 24.5991C62.4116 24.5991 61.8041 24.3968 61.4516 23.8674C60.6566 22.6704 59.404 20.4301 58.7279 19.2018C58.3668 18.5448 57.9562 17.9068 57.5083 17.307L56.524 15.9876C56.3903 15.8088 56.3877 15.5641 56.5171 15.3818C59.6479 10.988 64.3308 11.4107 64.5278 11.4306C64.7153 11.4497 64.8776 11.5704 64.9497 11.744C66.164 14.6535 68.8722 17.7644 69.9806 18.9666C70.3677 19.3876 70.4389 20.0065 70.1577 20.5082C70.0492 20.7026 69.8791 20.8736 69.6673 21.0003L69.2324 21.2607L69.0857 22.219C69.0623 22.3744 68.9685 22.5098 68.8322 22.5879C68.097 23.0063 65.1623 24.5991 63.1338 24.5991H63.1347ZM57.5778 15.6795L58.3329 16.6925C58.8086 17.3304 59.2452 18.0075 59.6288 18.7054C60.2972 19.9206 61.5341 22.1322 62.3084 23.2971C62.8621 24.1304 65.9557 22.9985 68.1083 21.8145L68.2533 20.8649C68.2767 20.713 68.3661 20.5802 68.4972 20.5012L69.1404 20.1167C69.1977 20.0829 69.2402 20.0438 69.261 20.0065C69.3253 19.891 69.3114 19.7556 69.2246 19.6619C67.8514 18.1707 65.4054 15.2915 64.1312 12.4384C63.1512 12.4184 59.9448 12.6181 57.5769 15.6786L57.5778 15.6795Z" fill="#FB5457"/>
<path d="M58.7765 20.5304C58.7765 20.5304 56.4138 17.3553 55.2064 18.7441C53.999 20.1329 56.6872 23.5623 58.7765 20.5304Z" fill="white"/>
<path d="M68.9 210.848L45.2974 112.896L21.6947 210.848H16.0371L41.9703 102.431L48.6227 102.422L74.5577 210.848H68.9Z" fill="white"/>
<path d="M74.5579 211.363H68.9002C68.6624 211.363 68.4558 211.201 68.4003 210.97L45.2967 115.091L22.194 210.97C22.1385 211.201 21.9319 211.363 21.6941 211.363H16.0364C15.8793 211.363 15.73 211.291 15.6328 211.167C15.5356 211.044 15.5 210.882 15.5365 210.729L41.4697 102.313C41.5253 102.082 41.7318 101.919 41.9688 101.918L48.6212 101.908C48.859 101.908 49.0656 102.071 49.1211 102.303L75.0561 210.729C75.0926 210.882 75.057 211.044 74.9597 211.167C74.8625 211.29 74.7132 211.363 74.5561 211.363H74.5579ZM69.3056 210.334H73.9069L48.2175 102.937L42.3759 102.945L16.6892 210.334H21.2904L44.7985 112.776C44.854 112.545 45.0606 112.382 45.2985 112.382C45.5363 112.382 45.7429 112.545 45.7984 112.776L69.3065 210.334H69.3056Z" fill="#FB5457"/>
<path d="M15.9156 103.81L202.086 103.81V94.9525L15.9156 94.9525V103.81Z" fill="white"/>
<path d="M202.086 104.324H15.9152C15.6314 104.324 15.4014 104.094 15.4014 103.81V94.9533C15.4014 94.6695 15.6314 94.4395 15.9152 94.4395H202.086C202.369 94.4395 202.599 94.6695 202.599 94.9533V103.81C202.599 104.094 202.369 104.324 202.086 104.324ZM16.4291 103.297H201.572V95.468H16.4291V103.297Z" fill="#FB5457"/>
</svg>
