<?xml version="1.0" encoding="UTF-8"?>
<svg id="Layer_1" xmlns="http://www.w3.org/2000/svg" viewBox="0 0 491.85 442.67">
  <defs>
    <style>
      .cls-1 {
        fill: #f05558;
      }
    </style>
  </defs>
  <path class="cls-1" d="M444.72,0H47.14C21.12.03.03,21.12,0,47.14v258.22c.03,26.02,21.12,47.1,47.14,47.14h141.11c-.89,12.18-3.78,24.13-8.56,35.38l-3.14,5.61h-2.34c-14.71.02-26.63,11.93-26.64,26.64v14.35c0,4.53,3.67,8.2,8.2,8.2h180.35c4.53,0,8.2-3.67,8.2-8.2v-14.35c-.02-14.71-11.93-26.63-26.64-26.64h-2.34l-3.14-5.61c-4.78-11.25-7.67-23.19-8.56-35.38h141.11c26.02-.03,47.1-21.12,47.14-47.14V47.14c-.03-26.02-21.12-47.1-47.14-47.14h0ZM47.14,16.4h397.58c16.97.02,30.72,13.77,30.74,30.74v247.98H16.4V47.14c.02-16.97,13.77-30.72,30.74-30.74h0ZM327.9,420.12v6.15h-163.95v-6.15c0-5.66,4.59-10.24,10.25-10.25h143.46c5.66,0,10.24,4.59,10.25,10.25h0ZM296.77,393.48h-101.68c5.45-13.03,8.7-26.89,9.6-40.99h9.49c3.74,14.49,16.8,24.6,31.75,24.6s28.02-10.12,31.75-24.6h9.49c.9,14.1,4.14,27.95,9.6,40.99h0ZM231.75,352.49h28.35c-2.92,5.07-8.33,8.2-14.17,8.2s-11.26-3.13-14.17-8.2h0ZM444.72,336.1H47.14c-14.6-.02-27.19-10.29-30.13-24.59h457.83c-2.94,14.3-15.52,24.58-30.13,24.59h0ZM444.72,336.1"/>
  <path class="cls-1" d="M37.31,205.26l33.63,16.9c2.08,1.05,4.52,1.16,6.68.3,2.17-.85,3.87-2.59,4.69-4.77l25.1-67.55v79.38c0,4.53,3.67,8.2,8.2,8.2h114.77c4.53,0,8.2-3.67,8.2-8.2v-78.48l24.24,66.6c.8,2.2,2.5,3.95,4.68,4.81,2.17.86,4.62.76,6.7-.29l33.63-16.9c3.69-1.86,5.43-6.17,4.05-10.07l-38.03-107.17c-6.07-17.19-18.59-31.34-34.91-39.45l-30.42-14.96c-1.13-.55-2.36-.84-3.61-.84h-.03l-58.81.19c-1.23,0-2.45.28-3.56.83l-30.44,14.8c-16.24,8.12-28.94,21.91-35.68,38.77l-43.02,107.52c-1.58,3.96.13,8.46,3.93,10.37h0ZM147.26,62.92l9.46,20.12-14.42-5.77,4.95-14.35ZM204.47,76.95l-13.1,5.24,10.2-18.34,2.9,13.1ZM173.6,80.41l-14.61-31.08,31.95-.1-17.34,31.18ZM258.4,93.52l35.61,100.35-18.93,9.52-37-101.62c-1.36-3.74-5.21-5.96-9.13-5.27-3.92.69-6.77,4.1-6.77,8.07v10.2h-16.4c-4.53,0-8.2,3.67-8.2,8.2s3.67,8.2,8.2,8.2h16.4v46.01l-13.8-4.6c-2.07-.71-4.33-.56-6.29.41-1.96.97-3.45,2.68-4.14,4.75-.69,2.08-.53,4.34.46,6.29.98,1.95,2.71,3.43,4.78,4.1l18.99,6.33v26.88h-40.99v-117.41l35.83-14.33c3.73-1.49,5.83-5.47,4.96-9.38l-5.39-24.34,15.06,7.4c12.5,6.22,22.1,17.07,26.74,30.24h0ZM91.61,93.47c5.23-13.11,15.09-23.84,27.71-30.16l12.56-6.11-7.63,22.1c-1.43,4.14.65,8.67,4.71,10.29l35.83,14.33v117.41h-40.99v-26.88l18.99-6.33c2.08-.67,3.8-2.15,4.78-4.1.99-1.95,1.15-4.21.46-6.29-.69-2.07-2.18-3.78-4.14-4.75-1.96-.97-4.23-1.12-6.29-.41l-13.8,4.6v-72.61c0-3.96-2.84-7.36-6.75-8.07-3.91-.7-7.75,1.49-9.14,5.21l-37.8,101.7-18.73-9.41,40.22-100.53ZM385.28,122.96c9.95,0,18.91-5.99,22.72-15.18,3.8-9.19,1.7-19.76-5.33-26.8-7.03-7.03-17.61-9.14-26.8-5.33-9.19,3.81-15.18,12.77-15.18,22.72.02,13.58,11.01,24.58,24.59,24.59h0ZM385.28,90.17c3.31,0,6.3,2,7.57,5.06,1.27,3.06.57,6.59-1.78,8.93-2.34,2.34-5.87,3.05-8.93,1.78-3.06-1.27-5.06-4.26-5.06-7.57,0-4.53,3.67-8.19,8.2-8.2h0ZM385.28,90.17"/>
  <path class="cls-1" d="M320.78,102.83l8.09,5.97c.9,4.96,2.47,9.77,4.64,14.31l-3.03,9.57c-1.06,3.37.14,7.03,3,9.11l26.53,19.27c2.86,2.08,6.71,2.09,9.59.04l8.17-5.84c5,.66,10.06.66,15.05,0l8.17,5.84c2.87,2.05,6.73,2.04,9.59-.04l26.53-19.27c2.86-2.08,4.06-5.74,3-9.11l-3.03-9.57c2.18-4.54,3.74-9.35,4.64-14.31l8.09-5.97c2.84-2.1,4.02-5.78,2.93-9.13l-10.13-31.18c-1.09-3.36-4.21-5.64-7.73-5.66l-10.05-.07c-3.65-3.47-7.74-6.45-12.17-8.85l-3.18-9.53c-1.11-3.35-4.25-5.6-7.78-5.6h-32.79c-3.53,0-6.66,2.26-7.78,5.6l-3.18,9.53c-4.43,2.4-8.52,5.37-12.17,8.84l-10.05.07c-3.53.03-6.65,2.31-7.73,5.66l-10.13,31.19c-1.09,3.36.09,7.03,2.93,9.13h0ZM341.75,73.2l7.53-.05c2.26-.02,4.41-.97,5.95-2.63,3.63-3.93,8-7.1,12.86-9.35,2.05-.95,3.62-2.71,4.33-4.85l2.38-7.14h20.97l2.38,7.14c.71,2.14,2.28,3.9,4.33,4.85,4.86,2.25,9.23,5.42,12.86,9.35,1.54,1.66,3.69,2.61,5.95,2.63l7.53.05,6.48,19.95-6.06,4.47c-1.83,1.35-3.01,3.38-3.27,5.64-.62,5.31-2.29,10.44-4.9,15.1-1.1,1.97-1.34,4.32-.66,6.48l2.27,7.17-16.97,12.33-6.12-4.37c-1.84-1.31-4.14-1.81-6.36-1.38-5.26,1.03-10.66,1.03-15.93,0-2.21-.44-4.52.06-6.35,1.38l-6.12,4.37-16.97-12.33,2.27-7.17c.68-2.16.44-4.5-.67-6.48-2.61-4.66-4.27-9.79-4.9-15.1-.27-2.25-1.45-4.29-3.27-5.64l-6.06-4.47,6.48-19.95ZM434.47,188.54h-8.2v-8.2c0-4.53-3.67-8.2-8.2-8.2h-24.59c-4.53,0-8.2,3.67-8.2,8.2v8.2h-40.99c-4.53,0-8.2,3.67-8.2,8.2s3.67,8.2,8.2,8.2h40.99v8.2c0,4.53,3.67,8.2,8.2,8.2h24.59c4.53,0,8.2-3.67,8.2-8.2v-8.2h8.2c4.53,0,8.2-3.67,8.2-8.2s-3.67-8.2-8.2-8.2h0ZM409.88,204.94h-8.2v-16.4h8.2v16.4ZM434.47,245.93h-32.79v-8.2c0-4.53-3.67-8.2-8.2-8.2h-24.59c-4.53,0-8.2,3.67-8.2,8.2v8.2h-16.4c-4.53,0-8.2,3.67-8.2,8.2s3.67,8.2,8.2,8.2h16.4v8.2c0,4.53,3.67,8.2,8.2,8.2h24.59c4.53,0,8.2-3.67,8.2-8.2v-8.2h32.79c4.53,0,8.2-3.67,8.2-8.2s-3.67-8.2-8.2-8.2h0ZM385.28,262.32h-8.2v-16.4h8.2v16.4ZM385.28,262.32"/>
  <path class="cls-1" d="M180.35,262.32c0,4.53-3.67,8.2-8.2,8.2s-8.2-3.67-8.2-8.2,3.67-8.2,8.2-8.2,8.2,3.67,8.2,8.2h0ZM180.35,262.32"/>
  <path class="cls-1" d="M147.56,262.32c0,4.53-3.67,8.2-8.2,8.2s-8.2-3.67-8.2-8.2,3.67-8.2,8.2-8.2,8.2,3.67,8.2,8.2h0ZM147.56,262.32"/>
  <path class="cls-1" d="M213.14,262.32c0,4.53-3.67,8.2-8.2,8.2s-8.2-3.67-8.2-8.2,3.67-8.2,8.2-8.2,8.2,3.67,8.2,8.2h0ZM213.14,262.32"/>
</svg>