<?xml version="1.0" encoding="UTF-8"?>
<svg id="Layer_1" xmlns="http://www.w3.org/2000/svg" xmlns:xlink="http://www.w3.org/1999/xlink" viewBox="0 0 467.95 484.85">
  <defs>
    <style>
      .cls-1 {
        fill: none;
      }

      .cls-2 {
        fill: #f05558;
      }

      .cls-3 {
        clip-path: url(#clippath);
      }
    </style>
    <clipPath id="clippath">
      <rect class="cls-1" width="467.95" height="484.85"/>
    </clipPath>
  </defs>
  <g class="cls-3">
    <path class="cls-2" d="M452.44,335.79c14.13-14.13,18.85-33.9,12.63-52.9-.84-2.57-2.96-4.53-5.6-5.16-2.63-.63-5.41.15-7.33,2.07l-28.19,28.19-13.53-3.63-3.63-13.53,28.19-28.19c1.92-1.92,2.7-4.69,2.07-7.33-.63-2.64-2.58-4.76-5.16-5.6-19-6.21-38.78-1.49-52.9,12.63-7.77,7.77-12.69,17.82-14.42,28.4-25.24-23.78-56.3-40.48-90.05-48.41,28.99-14.05,50.6-41.25,56.7-74.35h1.46c11.94,0,21.65-9.71,21.65-21.65,0-10.1-6.96-18.61-16.34-20.99,0-.25,0-.49,0-.74,0-45.46-27.93-85.6-70.04-101.56-.62-3.73-2.21-7.22-4.62-10.13C255.71,3.62,240.93.77,229.87.02c-.35-.03-.71-.03-1.06,0-11.06.75-25.84,3.6-33.46,12.9-2.41,2.91-4,6.4-4.62,10.13-42.11,15.96-70.04,56.1-70.04,101.56v.74c-9.37,2.37-16.34,10.88-16.34,20.99,0,11.94,9.71,21.65,21.65,21.65h1.46c6.09,33.08,27.68,60.26,56.64,74.32-19.63,4.61-38.42,12.22-55.73,22.56l-.69-1.78c-1.16-3.01-4.05-5-7.28-5h-26.79c-3.22,0-6.12,1.99-7.28,5l-4.88,12.67c-6.75,1.93-13.25,4.62-19.38,8.04l-12.42-5.52c-2.95-1.31-6.4-.67-8.68,1.61l-18.94,18.95c-2.29,2.28-2.92,5.73-1.61,8.68l5.52,12.43c-3.41,6.13-6.11,12.63-8.04,19.38l-12.67,4.88c-3.01,1.16-5,4.05-5,7.28v26.79c0,3.22,1.98,6.12,5,7.28l12.67,4.88c1.93,6.75,4.62,13.25,8.03,19.39l-5.51,12.42c-1.31,2.95-.67,6.4,1.61,8.68l18.94,18.94c2.28,2.28,5.73,2.92,8.68,1.61l12.42-5.52c6.13,3.41,12.63,6.1,19.38,8.03l4.88,12.68c1.16,3.01,4.05,5,7.28,5h26.79c3.22,0,6.12-1.99,7.28-5l4.88-12.67c6.75-1.93,13.25-4.63,19.39-8.03l12.42,5.51c2.95,1.31,6.4.67,8.68-1.61l18.94-18.94c2.29-2.29,2.92-5.73,1.61-8.68l-.19-.43h38.73c-1.63,8.48-1.14,17.4,1.68,26,.84,2.58,2.96,4.53,5.6,5.16,2.64.63,5.41-.16,7.33-2.07l28.19-28.19,13.53,3.63,3.63,13.53-28.19,28.19c-1.92,1.92-2.7,4.69-2.07,7.33.63,2.63,2.58,4.76,5.16,5.6,5.26,1.72,10.74,2.6,16.27,2.6,13.53,0,26.7-5.31,36.63-15.24,12.37-12.37,17.52-29.83,14.28-46.54h83.58c2.21,0,4.32-.94,5.8-2.59,1.48-1.65,2.19-3.84,1.96-6.04-2.35-21.94-8.28-43.01-17.62-62.8,16.05,2.36,32.88-2.9,44.56-14.58h0ZM191.81,39.46l5.71,43.94c.26,2.05,1.33,3.92,2.98,5.17,1.64,1.26,3.71,1.82,5.76,1.55,2.05-.26,3.91-1.33,5.17-2.98,1.26-1.64,1.82-3.71,1.55-5.76l-6.89-53.09c-.39-2.97.5-4.49,1.31-5.49,3.05-3.72,11.23-6.4,21.93-7.19,10.7.8,18.88,3.47,21.93,7.19.82.99,1.71,2.52,1.32,5.49l-6.89,53.09c-.48,4.23,2.52,8.07,6.75,8.62,4.22.55,8.11-2.4,8.72-6.61l5.7-43.94c33.56,14.74,55.53,47.85,55.53,85.16v.08h-32.96v-49.47c0-4.31-3.49-7.8-7.8-7.8s-7.8,3.49-7.8,7.8v49.47h-88.99v-49.47c0-4.31-3.49-7.8-7.8-7.8s-7.8,3.49-7.8,7.8v49.47h-32.96v-.08c0-37.3,21.96-70.42,55.52-85.16h0ZM119.95,146.35c0-3.34,2.71-6.05,6.05-6.05h206.68c3.34,0,6.05,2.71,6.05,6.05s-2.72,6.05-6.05,6.05H126c-3.34,0-6.05-2.71-6.05-6.05h0ZM143.38,167.99h171.93c-8.71,39.95-44.23,69.09-85.96,69.09s-77.25-29.14-85.96-69.09h0ZM165.81,435.04l-11.18-4.97c-2.35-1.04-5.06-.86-7.26.49-6.94,4.28-14.52,7.42-22.45,9.31-2.5.59-4.55,2.39-5.47,4.79l-4.39,11.4h-16.08l-4.39-11.41c-.92-2.4-2.97-4.19-5.47-4.79-7.93-1.88-15.51-5.03-22.45-9.31-2.19-1.35-4.9-1.53-7.25-.49l-11.19,4.97-11.37-11.37,4.96-11.18c1.05-2.35.86-5.07-.49-7.26-4.28-6.95-7.42-14.53-9.31-22.46-.6-2.5-2.39-4.55-4.79-5.47l-11.4-4.39v-16.08l11.4-4.39c2.4-.92,4.19-2.97,4.78-5.47,1.89-7.94,5.03-15.52,9.31-22.46,1.35-2.19,1.53-4.9.49-7.26l-4.96-11.17,11.37-11.37,11.18,4.97c2.35,1.04,5.07.86,7.26-.49,6.94-4.28,14.52-7.42,22.45-9.31,2.5-.59,4.55-2.38,5.47-4.78l4.39-11.4h16.08l4.39,11.4c.92,2.4,2.97,4.19,5.47,4.78,7.94,1.89,15.51,5.03,22.45,9.31,2.19,1.35,4.91,1.53,7.26.49l11.18-4.97,11.37,11.37-4.97,11.17c-1.04,2.35-.86,5.07.49,7.26,4.28,6.95,7.42,14.53,9.31,22.46.59,2.5,2.39,4.55,4.78,5.47l11.41,4.39v16.08l-11.41,4.39c-2.4.92-4.19,2.97-4.79,5.47-1.88,7.93-5.03,15.51-9.31,22.45-1.35,2.19-1.53,4.91-.49,7.26l4.97,11.18-11.37,11.37ZM246.45,394.9c-3.36,3.36-6.25,7.16-8.59,11.3h-47.88c2.53-5.06,4.59-10.34,6.14-15.78l12.68-4.88c3.01-1.16,5-4.05,5-7.28v-26.79c0-3.22-1.99-6.12-5-7.28l-12.67-4.88c-1.93-6.75-4.63-13.25-8.04-19.39l5.52-12.42c1.31-2.95.67-6.4-1.61-8.68l-18.94-18.95c-2.29-2.28-5.73-2.92-8.68-1.61l-12.42,5.52c-4.54-2.52-9.28-4.65-14.17-6.38,27.72-16.21,59.16-24.74,91.57-24.74,52.17,0,101.62,22.36,136.16,61.42l-67.68,67.68c-18.23-5.38-37.94-.35-51.37,13.12h0ZM316.81,417.87c5.55,13.55,2.42,29.1-7.95,39.45-6.24,6.23-14.28,9.86-22.71,10.54l20.15-20.15c1.97-1.97,2.74-4.84,2.01-7.54l-5.96-22.23c-.72-2.69-2.82-4.79-5.51-5.51l-22.23-5.96c-2.69-.72-5.57.05-7.54,2.02l-20.15,20.16c.69-8.43,4.32-16.48,10.55-22.71,10.34-10.37,25.9-13.5,39.44-7.95,2.91,1.19,6.24.51,8.46-1.71l75-74.99c2.22-2.22,2.89-5.56,1.71-8.46-5.46-13.38-2.27-29.23,7.95-39.45,6.36-6.36,14.35-9.99,22.78-10.62l-20.23,20.23c-1.97,1.97-2.74,4.84-2.01,7.53l5.96,22.23c.72,2.69,2.82,4.79,5.51,5.52l22.23,5.96c2.7.72,5.56-.05,7.53-2.02l20.23-20.23c-.63,8.43-4.26,16.43-10.62,22.78-10.22,10.22-26.07,13.41-39.44,7.95-2.91-1.18-6.24-.51-8.46,1.71l-75,75c-2.22,2.22-2.89,5.55-1.71,8.46h0ZM343.77,406.2l49.74-49.74c7.51,15.75,12.68,32.5,15.35,49.74h-65.09ZM107.01,310.35c-30.06,0-54.52,24.46-54.52,54.52s24.46,54.53,54.52,54.53,54.53-24.46,54.53-54.53-24.46-54.52-54.53-54.52h0ZM107.01,403.8c-21.46,0-38.92-17.46-38.92-38.93s17.46-38.92,38.92-38.92,38.93,17.46,38.93,38.92-17.46,38.93-38.93,38.93h0ZM107.01,403.8"/>
  </g>
</svg>