<?xml version="1.0" encoding="UTF-8"?>
<svg id="Layer_1" xmlns="http://www.w3.org/2000/svg" viewBox="0 0 489.36 487.26">
  <defs>
    <style>
      .cls-1 {
        fill: #f05558;
      }
    </style>
  </defs>
  <path class="cls-1" d="M450.17,379.57h3.99v-77.84c0-4.36-3.54-7.89-7.89-7.89h-83.4c-4.36,0-7.89,3.54-7.89,7.89v75.51h-18.22v-75.51c0-4.36-3.54-7.89-7.89-7.89h-83.4c-4.36,0-7.89,3.54-7.89,7.89v75.51h-34.46v-5.48c0-11.73-9.54-21.27-21.27-21.27h-5.5l-19.09-72.14.79-2.06c8.29-2.32,16.26-5.62,23.76-9.85l15.23,6.77c2.99,1.33,6.48.67,8.79-1.63l22.33-22.33c2.31-2.31,2.95-5.8,1.63-8.78l-6.76-15.24c4.22-7.49,7.53-15.47,9.85-23.75l15.54-5.98c3.05-1.17,5.06-4.1,5.06-7.37v-31.57c0-3.27-2.01-6.2-5.06-7.37l-15.54-5.98c-1.34-4.77-3.01-9.44-4.99-13.98l63.5-53.2,64.37,56.41c.31,7.69,3.33,14.7,8.13,20.1-22.26,9.45-37.92,31.53-37.92,57.2,0,22.09,11.88,42.69,31.01,53.77,2.44,1.41,5.45,1.42,7.9,0,2.45-1.41,3.95-4.02,3.95-6.84v-43.16l18.68-10.79,18.68,10.79v43.79c0,2.79,1.47,5.37,3.87,6.79,2.4,1.42,5.37,1.47,7.82.13,19.91-10.92,32.29-31.8,32.29-54.48,0-25.67-15.66-47.76-37.92-57.2,5.07-5.71,8.16-13.23,8.16-21.45,0-17.43-13.86-31.68-31.14-32.32l-58.69-62.98c-.55-19.82-16.83-35.78-36.78-35.78-13.08,0-24.59,6.87-31.11,17.19l-92.98,55.2c-3.8-1.56-7.69-2.89-11.64-4l-5.98-15.54c-1.17-3.05-4.1-5.06-7.36-5.06h-31.58c-3.26,0-6.19,2.01-7.36,5.06l-5.99,15.54c-8.28,2.32-16.26,5.62-23.75,9.85l-15.24-6.76c-2.98-1.33-6.47-.68-8.78,1.63l-22.33,22.33c-2.31,2.31-2.96,5.8-1.63,8.79l6.77,15.23c-4.22,7.49-7.53,15.47-9.85,23.75l-15.54,5.98c-3.05,1.17-5.06,4.1-5.06,7.36v31.58c0,3.26,2.02,6.19,5.06,7.36l15.54,5.98c2.32,8.29,5.62,16.26,9.85,23.76l-6.77,15.23c-1.33,2.98-.67,6.48,1.63,8.79l22.33,22.33c.8.79,1.76,1.4,2.81,1.79l4.61,77.12h-2.98c-11.73,0-21.26,9.54-21.26,21.26v9.19c-20.57,7.97-35.19,27.96-35.19,51.3,0,30.33,24.68,55.01,55.01,55.01h379.33c30.33,0,55.01-24.68,55.01-55.01,0-24.83-16.54-45.86-39.18-52.68h0ZM398.5,309.62h12.14v18.24h-12.14v-18.24ZM370.77,309.62h11.95v26.13c0,4.36,3.53,7.89,7.89,7.89h27.93c4.36,0,7.89-3.53,7.89-7.89v-26.13h11.95v67.78c-1.35-.1-2.69-.16-4.04-.17h-63.57v-67.61ZM281.1,309.62h12.14v18.24h-12.14v-18.24ZM253.37,309.62h11.95v26.13c0,4.36,3.54,7.89,7.89,7.89h27.92c4.36,0,7.89-3.53,7.89-7.89v-26.13h11.95v67.61h-67.61v-67.61ZM228.14,95.43l-22.33-22.33c-.89-.88-1.97-1.54-3.17-1.92l54.4-32.3c.71,12.77,7.97,23.81,18.46,29.84l-47.72,39.98,1.99-4.49c1.33-2.99.68-6.47-1.63-8.79h0ZM434.37,209.73c0,11.71-4.43,22.97-12.4,31.55v-32.33c0-2.82-1.5-5.42-3.95-6.83l-26.58-15.35c-2.45-1.41-5.45-1.41-7.89,0l-26.58,15.35c-2.44,1.41-3.95,4.02-3.95,6.83v31.06c-7.16-8.31-11.28-19.03-11.28-30.28,0-25.54,20.78-46.32,46.31-46.32,25.54,0,46.31,20.78,46.31,46.32h0ZM388.05,114.52c9.13,0,16.56,7.42,16.56,16.55s-7.42,16.55-16.56,16.55-16.55-7.43-16.55-16.55,7.43-16.55,16.55-16.55h0ZM359.94,115.11l-51.07-44.75c7.38-3.33,13.46-9,17.32-16.13l45.57,48.91c-4.92,2.88-9,7.01-11.82,11.96h0ZM293.78,15.79c11.59,0,21.02,9.43,21.02,21.02s-9.43,21.02-21.02,21.02-21.02-9.42-21.02-21.02,9.43-21.02,21.02-21.02h0ZM44.67,241.91l6.21-13.99c1.05-2.38.87-5.13-.49-7.34-5.12-8.3-8.88-17.36-11.13-26.85-.61-2.53-2.42-4.6-4.85-5.54l-14.27-5.49v-20.73l14.28-5.49c2.43-.94,4.24-3.01,4.84-5.54,2.25-9.49,6.01-18.54,11.13-26.84,1.37-2.22,1.55-4.96.49-7.34l-6.21-13.99,14.66-14.66,13.99,6.21c2.38,1.06,5.12.87,7.34-.49,8.29-5.11,17.36-8.87,26.84-11.12,2.53-.61,4.6-2.42,5.54-4.84l5.49-14.28h20.74l5.49,14.28c.94,2.43,3.01,4.24,5.54,4.84,9.48,2.26,18.54,6.01,26.84,11.12,2.22,1.37,4.96,1.55,7.34.49l13.99-6.21,14.66,14.66-6.21,13.99c-1.05,2.38-.87,5.13.49,7.34,5.12,8.3,8.87,17.36,11.13,26.85.6,2.53,2.41,4.6,4.84,5.54l14.27,5.49v20.74l-14.28,5.49c-2.43.94-4.24,3.01-4.84,5.54-2.26,9.48-6.01,18.55-11.12,26.84-1.37,2.21-1.55,4.96-.49,7.34l6.21,13.99-14.66,14.67-13.99-6.21c-2.38-1.06-5.12-.87-7.34.49-8.3,5.12-17.36,8.87-26.84,11.13-2.53.6-4.6,2.42-5.54,4.84l-5.49,14.27h-20.74l-5.49-14.27c-.94-2.43-3.01-4.25-5.54-4.85-9.48-2.26-18.54-6.01-26.84-11.13-2.21-1.36-4.96-1.55-7.34-.49l-13.99,6.22-14.66-14.66ZM70.37,268.95l5.66-2.51c7.49,4.22,15.47,7.53,23.75,9.85l5.98,15.54c1.18,3.05,4.1,5.06,7.37,5.06h31.58c.37,0,.74-.03,1.11-.08l14.2,53.68h-84.77l-4.88-81.53ZM50.97,371.75c0-3.03,2.46-5.48,5.48-5.48h125.39c3.03,0,5.48,2.46,5.48,5.48v5.48H55.01c-1.36,0-2.7.07-4.04.17v-5.64ZM434.34,471.47H55.01c-21.63,0-39.23-17.59-39.23-39.23s17.6-39.23,39.23-39.23h379.33c21.63,0,39.23,17.6,39.23,39.23s-17.6,39.23-39.23,39.23h0ZM271.16,407.34c0,4.36-3.53,7.89-7.89,7.89h-37.17c-4.36,0-7.89-3.53-7.89-7.89s3.53-7.89,7.89-7.89h37.17c4.36,0,7.89,3.53,7.89,7.89h0ZM397.6,457.16c0,4.36-3.54,7.89-7.89,7.89h-37.18c-4.36,0-7.89-3.53-7.89-7.89s3.54-7.89,7.89-7.89h37.18c4.36,0,7.89,3.53,7.89,7.89h0ZM144.72,407.34c0,4.36-3.54,7.89-7.89,7.89h-37.18c-4.36,0-7.89-3.53-7.89-7.89s3.54-7.89,7.89-7.89h37.18c4.36,0,7.89,3.53,7.89,7.89h0ZM397.6,407.34c0,4.36-3.54,7.89-7.89,7.89h-37.18c-4.36,0-7.89-3.53-7.89-7.89s3.54-7.89,7.89-7.89h37.18c4.36,0,7.89,3.53,7.89,7.89h0ZM271.16,457.16c0,4.36-3.53,7.89-7.89,7.89h-37.17c-4.36,0-7.89-3.53-7.89-7.89s3.53-7.89,7.89-7.89h37.17c4.36,0,7.89,3.53,7.89,7.89h0ZM144.72,457.16c0,4.36-3.54,7.89-7.89,7.89h-37.18c-4.36,0-7.89-3.53-7.89-7.89s3.54-7.89,7.89-7.89h37.18c4.36,0,7.89,3.53,7.89,7.89h0ZM55.01,399.45c-18.09,0-32.8,14.71-32.8,32.8s14.72,32.8,32.8,32.8,32.81-14.72,32.81-32.8-14.72-32.8-32.81-32.8h0ZM55.01,449.26c-9.38,0-17.02-7.64-17.02-17.02s7.64-17.01,17.02-17.01,17.02,7.63,17.02,17.01-7.64,17.02-17.02,17.02h0ZM181.46,399.45c-18.09,0-32.8,14.71-32.8,32.8s14.72,32.8,32.8,32.8,32.8-14.72,32.8-32.8-14.71-32.8-32.8-32.8h0ZM181.46,449.26c-9.38,0-17.02-7.64-17.02-17.02s7.64-17.01,17.02-17.01,17.01,7.63,17.01,17.01-7.63,17.02-17.01,17.02h0ZM307.9,399.45c-18.09,0-32.8,14.71-32.8,32.8s14.71,32.8,32.8,32.8,32.8-14.72,32.8-32.8-14.72-32.8-32.8-32.8h0ZM307.9,449.26c-9.38,0-17.01-7.64-17.01-17.02s7.63-17.01,17.01-17.01,17.02,7.63,17.02,17.01-7.64,17.02-17.02,17.02h0ZM434.34,399.45c-18.09,0-32.81,14.71-32.81,32.8s14.72,32.8,32.81,32.8,32.8-14.72,32.8-32.8-14.72-32.8-32.8-32.8h0ZM434.34,449.26c-9.38,0-17.02-7.64-17.02-17.02s7.64-17.01,17.02-17.01,17.02,7.63,17.02,17.01-7.64,17.02-17.02,17.02h0ZM282.93,36.8c0-5.99,4.86-10.85,10.85-10.85s10.85,4.86,10.85,10.85-4.86,10.85-10.85,10.85-10.85-4.86-10.85-10.85h0ZM128.91,235.29c34.72,0,62.96-28.24,62.96-62.96s-28.24-62.96-62.96-62.96-62.96,28.24-62.96,62.96,28.24,62.96,62.96,62.96h0ZM128.91,125.16c26.01,0,47.17,21.17,47.17,47.18s-21.16,47.17-47.17,47.17-47.17-21.16-47.17-47.17,21.16-47.18,47.17-47.18h0ZM128.91,125.16"/>
</svg>